<svg width="26" height="26" viewBox="0 0 26 26" fill="none" xmlns="http://www.w3.org/2000/svg">
<path opacity="0.2" d="M25.75 13C25.75 15.5217 25.0022 17.9868 23.6012 20.0835C22.2003 22.1803 20.209 23.8144 17.8792 24.7795C15.5495 25.7445 12.9859 25.997 10.5126 25.505C8.03935 25.0131 5.76751 23.7987 3.98439 22.0156C2.20127 20.2325 0.986955 17.9607 0.494993 15.4874C0.00303183 13.0141 0.255524 10.4505 1.22054 8.12079C2.18556 5.79103 3.81976 3.79975 5.91649 2.39876C8.01321 0.997774 10.4783 0.25 13 0.25C16.3815 0.25 19.6245 1.5933 22.0156 3.98439C24.4067 6.37548 25.75 9.61849 25.75 13Z" fill="black"/>
</svg>
